<?xml version="1.0" encoding="utf-8"?>
<!-- Generator: Adobe Illustrator 16.0.3, SVG Export Plug-In . SVG Version: 6.00 Build 0)  -->
<!DOCTYPE svg PUBLIC "-//W3C//DTD SVG 1.1//EN" "http://www.w3.org/Graphics/SVG/1.1/DTD/svg11.dtd">
<svg version="1.1" id="Vrstva_1" xmlns:svg="http://www.w3.org/2000/svg"
	 xmlns="http://www.w3.org/2000/svg" xmlns:xlink="http://www.w3.org/1999/xlink" x="0px" y="0px" width="283.465px"
	 height="283.465px" viewBox="-84.232 -116.732 283.465 283.465" enable-background="new -84.232 -116.732 283.465 283.465"
	 xml:space="preserve">
<g>
	<path id="A" fill="#CF1430" d="M-55.195-28.637l6.443,16.447l-35.48,89.362h14.067l10.062-25.318h36.401l9.917,25.318h28.624
		L-26.578-28.637H-55.195z M-55.271,39.662l13.503-33.989l13.3,33.989H-55.271z"/>
	<path id="E" fill="#CF1430" d="M53.877,17.497v-33.399h41.986l5.01-12.734H27.075V77.172h69.869l5.066-12.715H53.877V29.885h33.423
		l4.955-12.388H53.877z"/>
	<path id="G" fill="#CF1430" d="M156.582,29.885h17.633v35.83c-2.076,0.523-4.51,0.895-7.059,0.895
		c-23.822,0-30.789-22.07-30.789-41.598c0-18.742,5.986-40.914,29.002-40.914h24.529l5.059-12.734h-32.479
		c-31.535,0-53.797,21.799-53.797,53.648c0,31.456,21.381,53.625,54.541,53.625c16.506,0,27.191-3.131,36.01-6.178V17.497h-37.738
		L156.582,29.885z"/>
</g>
</svg>
