<?xml version="1.0" encoding="utf-8"?>
<!-- Generator: Adobe Illustrator 16.0.3, SVG Export Plug-In . SVG Version: 6.00 Build 0)  -->
<!DOCTYPE svg PUBLIC "-//W3C//DTD SVG 1.1//EN" "http://www.w3.org/Graphics/SVG/1.1/DTD/svg11.dtd">
<svg version="1.1" id="Layer_1" xmlns="http://www.w3.org/2000/svg" xmlns:xlink="http://www.w3.org/1999/xlink" x="0px" y="0px"
	 width="283.465px" height="283.465px" viewBox="0 0 283.465 283.465" enable-background="new 0 0 283.465 283.465"
	 xml:space="preserve">
<g>
	<path fill="#2C7DB9" d="M72.541,109.241c-1.229-6.729-4.355-13.172-9.245-17.968c-4.876-4.929-11.416-8.044-18.203-9.228
		c-7.507-1.318-15.325-0.687-22.518,1.747c-0.003-7.549,0-15.073,0-22.597c-7.521-0.001-15.042-0.001-22.562,0
		c0,19.784-0.003,39.6,0.001,59.383c0.111,3.023,0.548,6.044,1.333,8.937c1.791,6.74,5.657,12.976,11.127,17.292
		c5.515,4.471,12.44,6.928,19.436,7.602c5.864,0.506,11.87,0.01,17.485-1.846c6.148-1.965,11.812-5.586,15.909-10.645
		c3.706-4.456,6.055-9.966,7.136-15.638C73.508,120.667,73.611,114.857,72.541,109.241z M50.714,118.527
		c-0.048,4.84-0.896,9.854-3.385,14.064c-1.713,2.922-4.481,5.361-7.845,6.094c-3.183,0.645-6.696,0.154-9.428-1.703
		c-2.882-1.91-4.759-5.025-5.871-8.249c-1.65-4.639-1.847-9.629-1.5-14.506c0.441-4.443,1.604-8.991,4.348-12.601
		c1.94-2.579,4.915-4.332,8.1-4.68c2.743-0.345,5.663,0.149,8.003,1.705c2.541,1.657,4.301,4.259,5.429,7.037
		C50.226,109.74,50.802,114.176,50.714,118.527z"/>
	<path fill="#2C7DB9" d="M146.994,61.195c7.24-0.005,14.543,0,21.781-0.001c0.008,16.793-0.008,33.592,0.01,50.388
		c0.393-0.28,0.666-0.684,0.883-1.073c6.053-9.214,12.186-18.355,18.232-27.57c9.402-0.016,18.867-0.008,28.332-0.005
		c-9.182,10.981-18.422,21.924-27.617,32.902c-0.195,0.194-0.305,0.484-0.021,0.68c10.176,12.119,20.504,24.218,30.678,36.34
		c-9.266,0.006-18.471,0-27.738,0.004c-0.283,0.074-0.482-0.023-0.598-0.289c-7.406-10.67-14.734-21.44-22.152-32.134
		c-0.02,10.789,0.01,21.579-0.016,32.399c-3.035,0.113-6.145,0.008-9.186,0.023c-4.195,0-8.391,0-12.586,0
		C146.992,122.325,146.996,91.76,146.994,61.195L146.994,61.195z"/>
	<path fill="#2C7DB9" d="M142.41,124.972c1.447-8.74,0.797-17.974-2.682-26.175c-1.52-3.515-3.657-6.791-6.399-9.472
		c-2.891-2.889-6.543-5.027-10.443-6.303c-4.694-1.519-9.72-1.906-14.611-1.504c-5.952,0.482-11.819,2.383-16.737,5.808
		c-5.275,3.654-9.276,8.938-11.766,14.834c-2.246,5.286-3.376,11.086-3.293,16.848c-0.036,5.822,0.997,11.765,3.52,17.052
		c1.77,3.803,4.349,7.229,7.536,9.96c2.926,2.531,6.344,4.469,9.958,5.756c5.023,1.859,10.391,2.547,15.714,2.652
		c8.838,0,17.82-0.988,26.076-4.299c-0.929-4.898-1.909-9.823-2.875-14.751c-7.036,2.236-14.462,3.123-21.834,2.781
		c-4.69-0.383-9.573-1.621-13.178-4.84c-2.401-2.1-3.866-5.17-4.153-8.344C112.288,124.965,127.364,124.971,142.41,124.972z
		 M97.144,110.025c0.403-4.152,2.102-8.346,5.269-11.175c2.299-2.096,5.468-3.085,8.548-2.977c3.123,0.001,6.306,1.208,8.399,3.565
		c2.539,2.877,3.518,6.83,3.561,10.588C114.328,110.025,105.736,110.026,97.144,110.025z"/>
	<path fill="#2C7DB9" d="M283.225,112.656c-0.561-5.409-2.207-10.723-4.984-15.357c-3.789-6.261-9.764-11.058-16.652-13.542
		c-5.52-2.054-11.559-2.679-17.428-2.289c-2.424,0.199-4.785,0.52-7.127,1.071c-6.326,1.462-12.299,4.526-16.852,9.165
		c-5.02,4.99-8.137,11.691-9.318,18.659c-1.465,8.449-0.775,17.442,2.934,25.255c2.518,5.262,6.439,9.808,11.316,13.015
		c5.076,3.332,11.035,5.201,17.025,5.779c5.84,0.496,11.793,0.008,17.357-1.775c7.418-2.344,14.07-7.211,18.256-13.806
		C282.645,131.118,284.1,121.607,283.225,112.656z M260.678,122.388c-0.492,4.048-1.578,8.146-4.014,11.471
		c-1.762,2.482-4.404,4.387-7.428,4.924c-2.729,0.404-5.646,0.104-8.084-1.256c-2.561-1.381-4.51-3.771-5.783-6.402
		c-1.551-3.133-2.246-6.635-2.535-10.104c-0.275-4.204-0.086-8.499,1.086-12.562c0.883-3.125,2.346-6.199,4.775-8.443
		c1.846-1.722,4.211-2.788,6.736-3.075c2.822-0.342,5.77,0.21,8.113,1.856c2.648,1.81,4.402,4.689,5.496,7.668
		C260.879,111.542,261.252,117.06,260.678,122.388z"/>
	<path fill="#2C7DB9" d="M64.669,191.232c70.068-9.861,140.137-19.641,210.176-29.51c0.08,7.33,0.072,14.66,0.006,21.99
		c-19.949,2.74-39.953,5.578-59.9,8.395C143.287,202.16,71.654,212.227,0.015,222.273c0-7.324-0.037-14.646,0.007-21.971
		C21.564,197.299,43.101,194.252,64.669,191.232L64.669,191.232z"/>
</g>
</svg>
