<?xml version="1.0" encoding="utf-8"?>
<!-- Generator: Adobe Illustrator 16.0.3, SVG Export Plug-In . SVG Version: 6.00 Build 0)  -->
<!DOCTYPE svg PUBLIC "-//W3C//DTD SVG 1.1//EN" "http://www.w3.org/Graphics/SVG/1.1/DTD/svg11.dtd">
<svg version="1.1" id="Vrstva_1" xmlns="http://www.w3.org/2000/svg" xmlns:xlink="http://www.w3.org/1999/xlink" x="0px" y="0px"
	 width="283.46px" height="283.46px" viewBox="0 0 283.46 283.46" enable-background="new 0 0 283.46 283.46" xml:space="preserve">
<g>
	<g>
		<path d="M162.857,78.293c1.99,0.198,3.992,0.317,5.982,0.498C166.85,78.596,164.848,78.491,162.857,78.293z"/>
		<path d="M168.84,78.791c3.784,0.381,7.592,0.631,11.375,1.175C176.432,79.422,172.921,79.174,168.84,78.791z"/>
		<path d="M282.978,135.635c-0.692-2.785-1.44-5.584-2.64-8.212c-2.74-5.861-6.881-10.646-11.618-14.944
			c-6.053-5.469-12.915-9.719-20.17-13.428c-6.014-3.081-12.324-5.664-18.692-7.908c-9.569-3.351-19.346-6.006-29.328-7.869
			c-6.741-1.27-13.546-2.301-20.314-3.308c-3.783-0.543-7.591-0.793-11.375-1.175c-1.99-0.181-3.992-0.3-5.982-0.498l-21.056-0.583
			c-3.125,0-6.278-0.099-9.421,0.018c-3.086,0.133-5.519,0.226-9.328,0.428c-0.978,0.32-2.138,0.189-3.203,0.284
			c-5.089,0.443-10.176,0.703-15.244,1.412c-7.432,1.018-14.854,2.176-22.226,3.575c-10.006,1.902-19.785,4.59-29.388,8.013
			c-7.83,2.825-15.465,6.097-22.716,10.199c-6.525,3.683-12.629,7.914-17.922,13.258c-4.708,4.729-8.559,10.036-10.667,16.419
			c-0.555,1.73-1.464,3.433-1.472,5.168c-0.021,3.219-0.688,6.443,0.421,9.568c0.363,1.074,0.427,2.193,0.796,3.223
			c0.738,2.105,1.109,4.394,2.793,6.054c0.134,0.098,0.103,0.391,0.164,0.586c0.081,0.293,0.129,0.586,0.275,0.879
			c1.741,3.026,3.892,5.823,6.308,8.398c5.31,5.573,11.487,10.1,18.147,13.961c7.966,4.68,16.364,8.303,25.082,11.234
			c5.649,1.949,11.385,3.608,17.158,5.087c5.211,1.354,10.53,2.33,15.805,3.404c3.465,0.684,6.936,1.271,10.409,1.823
			c3.508,0.52,7.023,0.91,10.539,1.301c3.906,0.391,7.821,0.688,11.768,0.976c4.459,0.296,8.935,0.685,13.426,0.772
			c6.204,0.102,12.382-0.004,18.555-0.149c3.467-0.037,6.885-0.232,10.319-0.522c4.775-0.323,9.564-0.686,14.336-1.271
			c5.371-0.586,10.708-1.366,16.043-2.147c2.532-0.391,4.976-0.879,7.482-1.367c10.316-2.051,20.534-4.688,30.425-8.245
			c7.493-2.691,14.82-5.771,21.755-9.623c7.552-4.126,14.548-8.984,20.496-15.332c4.49-4.783,7.835-10.252,9.63-16.599
			c0.352-1.367,1.02-2.653,1.02-4.004C283.359,141.561,283.757,138.631,282.978,135.635z M275.556,150.728
			c-1.827,4.014-4.297,7.528-7.327,10.751c-5.07,5.275-10.936,9.471-17.268,13.085c-9.574,5.564-19.81,9.471-30.331,12.697
			c-10.89,3.362-22.001,5.757-33.256,7.418c-5.173,0.78-10.354,1.366-15.544,1.952c-3.271,0.305-6.546,0.488-9.842,0.78
			c-8.419,0.592-16.866,0.723-25.272,0.587c-5.558-0.098-11.075-0.293-16.593-0.781c-7.226-0.586-14.453-1.27-21.634-2.247
			c-6.156-0.877-12.275-2.061-18.363-3.318c-7.85-1.563-15.517-3.711-23.08-6.341c-8.806-2.977-17.387-6.55-25.439-11.321
			c-6.296-3.677-12.16-7.966-17.069-13.39c-3.904-4.394-6.928-9.27-8.087-15.037c-0.324-1.615-0.37-3.221-0.535-4.883
			c0.007-6.819,2.808-12.478,6.885-17.652c3.709-4.733,8.249-8.546,13.164-11.927c8.609-5.947,18.041-10.198,27.809-13.804
			c8.241-3.007,16.636-5.473,25.192-7.231c7.515-1.556,15.077-2.835,22.651-3.962c5.711-0.867,11.476-1.325,17.235-1.851
			c3.177-0.292,6.359-0.436,9.572-0.492c6.641-0.145,13.28-0.332,19.927-0.255c5.023,0.05,10.026,0.376,15.032,0.705
			c4.396,0.292,8.838,0.582,13.23,1.168c7.164,0.975,14.377,2.006,21.506,3.342c5.779,1.097,11.527,2.506,17.285,4.014
			c8.663,2.298,17.088,5.291,25.289,8.954c5.569,2.488,10.936,5.272,15.954,8.691c5.824,3.955,11.192,8.399,15.311,14.163
			c2.621,3.572,4.589,7.454,5.338,11.853C278.095,141.309,277.605,146.139,275.556,150.728z"/>
	</g>
	<path fill-rule="evenodd" clip-rule="evenodd" d="M108.179,147.125c2.522-0.291,4.673-0.959,6.672-2.051
		c2.979-1.743,4.834-4.1,4.784-7.713c-0.098-5.658,0-11.258-0.048-16.869c-0.012-0.813-0.256-1.715-0.636-2.447
		c-1.22-2.295-3.32-3.308-5.809-3.32c-8.741-0.049-17.483-0.005-26.243-0.002c-2.072,0.001-3.375,1.272-3.377,3.312
		c-0.013,15.811-0.011,31.629-0.003,47.449c0,1.17,0.375,1.514,1.551,1.529c2.422,0.031,4.828,0.016,7.222,0.01
		c1.854-0.004,2.043-0.174,2.043-2.027c0-12.305-0.001-24.606,0.001-36.972c0.001-1.538,0.427-1.979,1.958-1.983
		c3.608-0.006,7.199-0.008,10.796,0.002c1.463,0.006,1.95,0.458,1.95,1.92c0.001,2.575,0.001,5.103,0,7.69
		c0,1.344-0.463,1.807-1.854,1.807c-2.735,0-5.471,0-8.218,0c-1.294,0-1.614,0.3-1.617,1.563c-0.011,4.1-0.027,8.284,0.019,12.399
		c0,0.438,0.181,0.977,0.441,1.328c3.563,4.618,7.177,9.166,10.79,13.709c0.191,0.295,0.537,0.49,0.793,0.49
		c2.871,0.09,5.75,0.096,8.607,0c1.049,0,1.537-0.686,1.622-1.713c0.111-1.511-0.422-2.878-1.256-4.05
		c-2.343-3.222-4.687-6.444-7.018-9.667C110.323,150.151,109.322,148.688,108.179,147.125z"/>
	<path fill-rule="evenodd" clip-rule="evenodd" d="M142.815,156.467c0.353,0.032,0.601,0.034,0.842,0.035
		c1.925,0.02,3.858,0.095,5.812-0.003c0.854,0,1.24,0.195,1.451,1.086c0.502,2.332,1.136,4.577,1.722,6.824
		c0.495,1.854,1.416,2.54,3.319,2.54c1.417,0,2.833,0.095,4.248-0.001c0.66-0.1,1.375-0.394,1.936-0.881
		c0.945-0.682,0.822-1.827,0.652-2.861c-0.635-3.947-1.27-7.879-1.904-11.785c-1.621-10.089-3.286-20.212-4.833-30.348
		c-0.342-2.148-0.928-4.1-2.637-5.474c-0.574-0.476-1.367-0.827-2.051-0.861c-4.396-0.062-8.831-0.033-13.23-0.014
		c-1.808,0.001-3.711,1.551-4.004,3.321c-1.222,7.228-2.441,14.434-3.632,21.659c-0.958,5.739-1.887,11.423-2.814,17.137
		c-0.39,2.195-0.635,4.442-1.074,6.662c-0.391,1.882,0.773,3.464,2.685,3.511c2.034,0.029,4.054-0.066,6.105,0.029
		c1.122,0,1.805-0.509,2.246-1.463c0.293-0.49,0.488-1.096,0.586-1.724c1.316-8.446,2.637-16.928,3.952-25.422
		c0.639-4.199,1.297-8.419,1.935-12.622c0.11-0.645,0.349-1.077,1.093-1.031c0.734,0.036,1.048,0.394,1.173,1.142
		c0.636,4.618,1.367,9.28,2.051,13.879c0.293,1.895,0.586,3.807,0.879,5.662c0.195,1.367-0.098,1.66-1.45,1.661
		c-0.918,0.01-1.846,0.097-2.75-0.001c-0.926-0.016-1.269,0.391-1.366,1.27c-0.195,1.757-0.437,3.61-0.685,5.37
		C142.973,154.644,142.906,155.522,142.815,156.467z"/>
	<path fill-rule="evenodd" clip-rule="evenodd" d="M184.138,167.026c0-0.029,0-0.057,0-0.077c2.063,0,4.118,0.004,6.167,0
		c1.267,0,2.273-0.414,3.203-1.271c1.1-1.057,1.779-2.344,2.07-3.809c0.841-4.506,1.641-9.08,2.443-13.572
		c0.978-5.566,1.954-11.091,2.931-16.621c0.781-4.497,1.563-8.991,2.345-13.484c0.274-1.416-0.1-2.202-1.37-2.88
		c-0.616-0.34-1.366-0.538-2.048-0.586c-1.467-0.081-2.932-0.108-4.396,0.022c-0.781,0.075-1.566,0.466-2.248,0.905
		c-0.992,0.684-1.27,1.808-1.476,2.979c-2.237,12.456-4.483,24.88-6.729,37.376c-0.107,0.589-0.399,1.26-1.071,1.077
		c-0.409-0.098-0.949-0.684-1.043-1.172c-0.424-2.148-0.712-4.297-1.052-6.444c-1.229-7.518-2.499-15.037-3.736-22.534
		c-0.488-2.931-0.928-5.885-1.42-8.84c-0.369-2.099-1.932-3.369-4.082-3.37c-1.576-0.002-3.188-0.009-4.799,0
		c-2.025,0.001-3.32,1.49-2.979,3.517c0.775,4.591,1.563,9.174,2.377,13.749c1.05,6.055,2.127,12.107,3.226,18.161
		c0.706,4.031,1.384,8.104,2.201,12.108c0.655,3.305,2.599,4.759,5.932,4.767C180.44,167.028,182.291,167.026,184.138,167.026z"/>
	<g>
		<path d="M75.376,146.246c-0.023-1.172-0.367-2.246-1.232-3.125c-1.043-1.074-2.414-1.365-3.774-1.756
			c-0.39-0.12-0.698-0.49-1.056-0.776c0.319-0.332,0.554-0.872,0.949-1.079c0.651-0.322,1.428-0.488,2.157-0.781
			c1.903-0.713,2.815-2.051,2.821-4.102c0.007-4.037-0.082-8.132,0.015-12.186c0.047-1.904-0.735-3.273-2.069-4.396
			c-2.619-2.193-5.697-3.272-9.023-3.319c-7.248-0.098-14.493-0.01-21.725-0.002c-2.131,0-3.234,1.084-3.234,3.227
			c-0.025,15.406-0.032,30.834-0.033,46.26c0,1.856,0.873,2.737,2.737,2.738c4.072,0.03,8.144,0,12.202,0c0,0.024,0,0.05,0,0.075
			c4.005,0,8.009,0,12.013,0c0.064,0,0.138,0.019,0.193-0.004c0.521-0.072,1.041-0.072,1.555-0.214
			c4.35-1.129,7.278-5.816,7.48-10.21C75.533,153.178,75.411,149.664,75.376,146.246z M50.747,142.73
			c0.005,1.367,0.583,1.938,1.938,1.95c3.189,0.003,6.405,0,9.608,0.003c1.327,0,1.774,0.391,1.777,1.758
			c0.001,2.539,0.002,5.063-0.001,7.56c-0.002,1.161-0.484,1.655-1.61,1.665c-4.1,0.035-8.2,0.018-12.3,0.002
			c-0.242,0-0.478-0.048-0.796-0.059c0-0.38,0-0.673,0-0.966c0-9.179,0.01-18.356-0.032-27.563c-0.002-0.83,0.24-1.075,1.084-1.075
			c4.039,0.05,8.083,0.026,12.104,0.036c1.074,0.002,1.518,0.404,1.545,1.479c0.009,2.061,0.009,4.153,0,6.209
			c-0.021,1.093-0.578,1.581-1.706,1.581c-3.268,0-6.538,0-9.806,0c-1.466,0-1.803,0.38-1.806,1.801
			C50.745,139.021,50.744,140.875,50.747,142.73z"/>
	</g>
	<path fill-rule="evenodd" clip-rule="evenodd" d="M108.179,147.125c1.144,1.563,2.144,3.026,3.169,4.394
		c2.331,3.223,4.674,6.445,7.018,9.667c0.834,1.172,1.367,2.539,1.256,4.05c-0.084,1.027-0.573,1.713-1.622,1.713
		c-2.857,0.096-5.736,0.09-8.607,0c-0.256,0-0.602-0.195-0.793-0.49c-3.613-4.543-7.226-9.091-10.79-13.709
		c-0.26-0.352-0.44-0.891-0.441-1.328c-0.046-4.115-0.03-8.3-0.019-12.399c0.003-1.263,0.323-1.563,1.617-1.563
		c2.747,0,5.482,0,8.218,0c1.392,0,1.854-0.463,1.854-1.807c0.001-2.588,0.001-5.115,0-7.69c0-1.462-0.487-1.914-1.95-1.92
		c-3.597-0.01-7.188-0.008-10.796-0.002c-1.531,0.004-1.957,0.445-1.958,1.983c-0.002,12.365-0.001,24.667-0.001,36.972
		c0,1.854-0.189,2.023-2.043,2.027c-2.394,0.006-4.8,0.021-7.222-0.01c-1.175-0.016-1.55-0.359-1.551-1.529
		c-0.008-15.819-0.01-31.638,0.003-47.449c0.002-2.04,1.306-3.311,3.377-3.312c8.76-0.002,17.502-0.047,26.243,0.002
		c2.489,0.013,4.589,1.025,5.809,3.32c0.38,0.732,0.624,1.634,0.636,2.447c0.048,5.611-0.05,11.21,0.048,16.869
		c0.05,3.613-1.805,5.97-4.784,7.713C112.852,146.166,110.701,146.834,108.179,147.125z"/>
	<g>
		<path d="M244.42,121.366c-0.001-3.467-2.959-6.495-6.455-6.495c-7.031,0-14.057,0.04-21.08-0.027
			c-1.48-0.02-2.736,0.466-3.821,1.346c-1.367,1.112-2.536,2.393-2.541,4.297c0,6.984,0,13.944,0,20.878l0,0
			c0,6.834,0.096,13.669,0,20.442c-0.06,3.471,2.44,5.112,4.979,5.141c7.975,0.096,15.919,0.096,23.844,0
			c2.815-0.067,5.159-1.66,5.159-5.274C244.402,148.199,244.422,134.807,244.42,121.366z M233.86,153.862
			c0,1.871-0.855,2.675-2.735,2.685c-2.346,0.01-4.688,0.018-7.031-0.006c-1.657-0.016-2.634-0.979-2.634-2.645
			c0-4.252,0-8.529,0-12.826c0-4.197,0-8.396,0-12.575c0-1.654,0.781-2.439,2.44-2.447c2.451-0.021,4.98-0.025,7.454,0
			c1.434,0.008,2.506,1.033,2.506,2.498C233.861,136.971,233.863,145.435,233.86,153.862z"/>
	</g>
	<path fill-rule="evenodd" clip-rule="evenodd" d="M142.815,156.467c0.091-0.944,0.157-1.823,0.255-2.702
		c0.248-1.76,0.489-3.613,0.685-5.37c0.098-0.879,0.44-1.285,1.366-1.27c0.904,0.098,1.832,0.011,2.75,0.001
		c1.353-0.001,1.646-0.294,1.45-1.661c-0.293-1.855-0.586-3.768-0.879-5.662c-0.684-4.599-1.415-9.261-2.051-13.879
		c-0.125-0.748-0.438-1.105-1.173-1.142c-0.744-0.046-0.982,0.387-1.093,1.031c-0.638,4.203-1.296,8.423-1.935,12.622
		c-1.315,8.494-2.636,16.976-3.952,25.422c-0.098,0.628-0.293,1.233-0.586,1.724c-0.441,0.954-1.125,1.463-2.246,1.463
		c-2.051-0.096-4.071,0-6.105-0.029c-1.912-0.047-3.075-1.629-2.685-3.511c0.438-2.22,0.684-4.467,1.074-6.662
		c0.927-5.714,1.856-11.397,2.814-17.137c1.191-7.226,2.41-14.432,3.632-21.659c0.293-1.77,2.196-3.32,4.004-3.321
		c4.399-0.02,8.834-0.048,13.23,0.014c0.684,0.035,1.477,0.385,2.051,0.861c1.709,1.374,2.295,3.325,2.637,5.474
		c1.547,10.136,3.212,20.259,4.833,30.348c0.635,3.906,1.27,7.838,1.904,11.785c0.17,1.034,0.293,2.18-0.652,2.861
		c-0.561,0.487-1.275,0.781-1.936,0.881c-1.415,0.096-2.831,0.001-4.248,0.001c-1.903,0-2.824-0.687-3.319-2.54
		c-0.586-2.247-1.22-4.492-1.722-6.824c-0.211-0.891-0.598-1.086-1.451-1.086c-1.953,0.098-3.887,0.022-5.812,0.003
		C143.416,156.501,143.168,156.499,142.815,156.467z"/>
	<path fill-rule="evenodd" clip-rule="evenodd" d="M184.138,167.026c-1.847,0-3.697,0.002-5.555,0
		c-3.333-0.008-5.276-1.462-5.932-4.767c-0.817-4.004-1.495-8.077-2.201-12.108c-1.099-6.054-2.176-12.106-3.226-18.161
		c-0.814-4.575-1.602-9.158-2.377-13.749c-0.342-2.027,0.953-3.516,2.979-3.517c1.61-0.009,3.223-0.002,4.799,0
		c2.15,0.001,3.713,1.271,4.082,3.37c0.492,2.955,0.932,5.91,1.42,8.84c1.237,7.497,2.508,15.017,3.736,22.534
		c0.34,2.147,0.628,4.296,1.052,6.444c0.094,0.488,0.634,1.074,1.043,1.172c0.672,0.183,0.964-0.488,1.071-1.077
		c2.246-12.496,4.492-24.92,6.729-37.376c0.206-1.171,0.483-2.295,1.476-2.979c0.682-0.439,1.467-0.83,2.248-0.905
		c1.465-0.13,2.93-0.104,4.396-0.022c0.682,0.048,1.432,0.246,2.048,0.586c1.271,0.679,1.645,1.465,1.37,2.88
		c-0.782,4.493-1.563,8.987-2.345,13.484c-0.977,5.53-1.953,11.055-2.931,16.621c-0.803,4.492-1.603,9.066-2.443,13.572
		c-0.291,1.465-0.971,2.752-2.07,3.809c-0.93,0.857-1.937,1.271-3.203,1.271c-2.049,0.004-4.104,0-6.167,0
		C184.138,166.97,184.138,166.997,184.138,167.026z"/>
</g>
</svg>
