<?xml version="1.0" encoding="utf-8"?>
<!-- Generator: Adobe Illustrator 16.0.3, SVG Export Plug-In . SVG Version: 6.00 Build 0)  -->
<!DOCTYPE svg PUBLIC "-//W3C//DTD SVG 1.1//EN" "http://www.w3.org/Graphics/SVG/1.1/DTD/svg11.dtd">
<svg version="1.1" id="Layer_1" xmlns="http://www.w3.org/2000/svg" xmlns:xlink="http://www.w3.org/1999/xlink" x="0px" y="0px"
	 width="283.465px" height="283.465px" viewBox="254.268 164.268 283.465 283.465"
	 enable-background="new 254.268 164.268 283.465 283.465" xml:space="preserve">
<g>
	<path fill="#121441" d="M254.268,338.614h65.076V273.54h-65.076V338.614L254.268,338.614z M295.975,278.504L295.975,278.504
		c11.504,3.777,19.815,14.679,19.849,27.564c0.027,12.679-8.112,23.549-19.849,27.564V278.504L295.975,278.504z M286.793,277.033
		L286.793,277.033c2.079,0,4.291,0.28,6.136,0.641c0,14.745-14.259,26.884-28.979,26.884l-6.153-0.007
		C258.809,289.432,271.313,277.033,286.793,277.033L286.793,277.033z M263.956,307.63L263.956,307.63
		c14.715,0,28.971,12.117,28.971,26.852c-1.843,0.381-4.165,0.661-6.134,0.661c-15.484-0.035-28.415-12.465-29-27.513H263.956
		L263.956,307.63z"/>
	<path fill="#121441" d="M341.125,311.806v-4.101h13.54v-5.241h-13.542v-7.616h14.406v-5.217H335.58v11.215v10.71
		c0,5.547,2.363,9.342,7.902,10.123c0.116,0.021,0.222,0.037,0.323,0.037h0.101c0.571,0.072,1.146,0.105,1.755,0.105h10.255v-5.203
		h-10.209C343.946,316.619,341.125,315.747,341.125,311.806z"/>
	<polygon fill="#121441" points="359.857,304.849 359.857,321.828 365.396,321.828 365.396,304.73 365.396,289.625 359.857,289.625 
			"/>
	<path fill="#121441" d="M381.3,297.812c-7.014,0-12.254,4.819-12.254,12.35v0.188c0,7.332,5.064,12.057,12.396,12.057
		c3.524,0,6.825-0.977,9.834-4.184l-3.336-3.242c-1.763,1.763-3.479,2.701-6.311,2.701c-4.134,0-6.872-2.421-7.061-6.133h18.2
		c0.095-0.919,0.095-1.949,0.095-1.949C392.862,303.054,388.267,297.812,381.3,297.812L381.3,297.812z M374.709,307.647
		L374.709,307.647c0.234-2.832,3.113-5.1,6.591-5.1c3.244,0,5.898,2.316,5.898,5.1H374.709z"/>
	<path fill="#121441" d="M408.432,302.771c2.513,0,4.368,0.929,5.944,2.561l3.432-3.583c-2.681-2.879-5.888-4.031-9.375-4.031
		c-7.051,0-12.714,5.241-12.714,12.385s5.664,12.396,12.714,12.396c3.488,0,6.695-1.163,9.375-4.031l-3.432-3.582
		c-1.574,1.633-3.432,2.55-5.944,2.55c-4.068,0-7.182-3.094-7.182-7.333C401.25,305.886,404.363,302.771,408.432,302.771z"/>
	<path fill="#121441" d="M426.817,311.813h-0.02v-8.229h5.05v-5.037h-5.026v-8.92h-5.549v11.557v10.95l0.013-0.001
		c0.161,5.241,2.537,8.796,7.892,9.554c0.108,0.021,0.215,0.036,0.314,0.039h0.102c0.569,0.07,1.152,0.103,1.755,0.103h0.586
		l0.017-5.201h-0.566C429.622,316.626,426.817,315.754,426.817,311.813z"/>
	<path fill="#121441" d="M442.012,302.013v-3.464h-5.494v11.417v11.863h5.494V309.59c0-3.839,2.447-6.241,6.289-6.241
		c0.879,0,1.669,0.094,2.305,0.235v-5.363c-0.225-0.047-1.064-0.139-1.663-0.139C445.616,298.081,443.127,299.604,442.012,302.013z"
		/>
	<path fill="#121441" d="M464.167,297.857c-7.063,0-12.706,5.352-12.706,12.332c0,6.986,5.643,12.334,12.706,12.334
		c7.024,0,12.705-5.348,12.705-12.334C476.872,303.208,471.192,297.857,464.167,297.857L464.167,297.857z M464.167,317.496
		L464.167,317.496c-4.11,0-7.212-3.197-7.212-7.307c0-4.112,3.102-7.297,7.212-7.297c4.075,0,7.213,3.185,7.213,7.297
		C471.38,314.299,468.242,317.496,464.167,317.496z"/>
	<polygon fill="#121441" points="480.284,304.287 480.284,321.828 485.836,321.828 485.836,304.515 485.836,289.625 
		480.284,289.625 	"/>
	<path fill="#121441" d="M505.84,312.094c0,3.679-2.173,5.251-5.09,5.251c-2.908,0-5.081-1.573-5.081-5.212v-13.584h-5.602v6.745
		v7.306c0,6.652,4.859,9.849,10.633,9.849c5.831,0,10.724-3.251,10.724-9.998v-7.156v-6.745h-5.584V312.094L505.84,312.094z"/>
	<polygon fill="#121441" points="532.409,314.387 528.908,309.496 533.238,303.596 536.947,298.548 530.895,298.548 
		525.862,305.526 520.777,298.548 514.763,298.548 518.215,303.254 522.811,309.555 517.986,316.248 513.978,321.828 
		519.938,321.828 525.862,313.607 531.767,321.828 537.732,321.828 	"/>
</g>
</svg>
