<?xml version="1.0" encoding="utf-8"?>
<!-- Generator: Adobe Illustrator 16.0.3, SVG Export Plug-In . SVG Version: 6.00 Build 0)  -->
<!DOCTYPE svg PUBLIC "-//W3C//DTD SVG 1.1//EN" "http://www.w3.org/Graphics/SVG/1.1/DTD/svg11.dtd">
<svg version="1.1" id="Layer_1" xmlns="http://www.w3.org/2000/svg" xmlns:xlink="http://www.w3.org/1999/xlink" x="0px" y="0px"
	 width="283.465px" height="283.465px" viewBox="0 0 283.465 283.465" enable-background="new 0 0 283.465 283.465"
	 xml:space="preserve">
<g>
	<polygon fill-rule="evenodd" clip-rule="evenodd" points="51.873,153.876 51.873,139.55 40.188,139.55 40.188,153.876 
		51.873,153.876 51.873,153.876 	"/>
	<path fill-rule="evenodd" clip-rule="evenodd" d="M45.892,138.171c3.258,0,5.9-1.496,5.9-3.344c0-1.847-2.642-3.344-5.9-3.344
		c-3.26,0-5.902,1.497-5.902,3.344C39.99,136.675,42.632,138.171,45.892,138.171L45.892,138.171L45.892,138.171L45.892,138.171z"/>
	<polygon fill-rule="evenodd" clip-rule="evenodd" points="250.645,153.876 250.645,139.55 238.965,139.55 238.965,153.876 
		250.645,153.876 250.645,153.876 	"/>
	<path fill-rule="evenodd" clip-rule="evenodd" d="M244.666,138.171c3.258,0,5.898-1.496,5.898-3.344
		c0-1.847-2.641-3.344-5.898-3.344s-5.9,1.497-5.9,3.344C238.766,136.675,241.408,138.171,244.666,138.171L244.666,138.171
		L244.666,138.171L244.666,138.171z"/>
	<path fill-rule="evenodd" clip-rule="evenodd" d="M107.238,131.9v21.976H119.2v-7.231l0,0c0-1.669,1.391-2.364,2.643-2.364
		c1.25,0,2.503-0.418,2.503,2.642l0,0v6.954h11.127v-9.18l0,0c0-2.363-0.975-5.747-6.955-5.841c-4.381-0.07-7.858,1.181-9.319,1.947
		l0,0V131.9H107.238L107.238,131.9L107.238,131.9z"/>
	<path fill-rule="evenodd" clip-rule="evenodd" d="M56.47,139.55v4.73h3.895v4.59l0,0c0,2.086,1.67,5.006,6.955,5.006
		c5.286,0,7.233-1.113,9.041-1.807l0,0v-3.478l0,0c-0.833,0.278-4.867,1.945-4.867-1.392l0,0v-2.92h4.867v-4.73h-4.867v-4.59H60.365
		v4.59H56.47L56.47,139.55L56.47,139.55z"/>
	<path fill-rule="evenodd" clip-rule="evenodd" d="M103.344,140.803c-2.642-1.601-5.771-2.226-10.432-2.226
		c-4.659,0-13.075,2.017-13.075,7.858s7.372,7.929,12.102,7.929c4.729,0,10.292-1.044,11.405-1.81l0,0v-4.033l0,0
		c-1.392,0.834-11.405,2.78-11.405-1.877c0-2.504,4.034-3.062,5.215-3.062c1.182,0,5.146,0.558,6.19,1.321l0,0V140.803
		L103.344,140.803L103.344,140.803z"/>
	<path fill-rule="evenodd" clip-rule="evenodd" d="M168.785,139.55v14.326h11.961v-7.231l0,0c0-1.669,1.393-2.644,2.645-2.644
		c2.293,0,2.502,0.14,2.502,2.921l0,0v6.954h11.125v-9.18l0,0c0-2.781-1.25-6.082-7.232-5.98c-4.102,0.069-7.789,1.391-9.039,2.087
		l0,0v-1.253H168.785L168.785,139.55L168.785,139.55z"/>
	<path fill-rule="evenodd" clip-rule="evenodd" d="M224.49,129.675h-15.162l0,0c0.695,0.139,1.877,2.018,1.531,2.781l0,0
		l-11.686,21.42h6.539l2.713-5.424h10.084l2.643,5.424h15.092L224.49,129.675L224.49,129.675L224.49,129.675z M210.615,144.07
		l3.164-6.329l2.645,6.329H210.615L210.615,144.07L210.615,144.07z"/>
	<path fill-rule="evenodd" clip-rule="evenodd" d="M272.334,131.9v7.999l0,0c-1.459-0.697-4.865-1.322-7.02-1.322
		c-3.41,0-10.781,1.182-10.781,7.51c0,6.814,7.232,7.789,10.082,7.789c2.854,0,6.121-0.417,7.719-1.321l0,0v1.321h11.131V131.9
		H272.334L272.334,131.9L272.334,131.9z M272.334,146.854c0,0.554-1.182,1.389-2.432,1.389c-1.191,0-3.965,0.278-3.965-2.363
		c0-1.948,2.924-2.713,3.826-2.713c0.904,0,2.57,0.209,2.57,1.599l0,0V146.854L272.334,146.854L272.334,146.854z"/>
	<path fill-rule="evenodd" clip-rule="evenodd" d="M154.953,150.122c-1.736,0-4.031-0.349-4.938-2.992l0,0h15.996l0,0
		c0-3.268-1.391-9.318-13.213-9.389c-7.094,0-14.188,2.365-14.257,8.206c-0.07,5.843,7.651,7.929,14.812,7.929
		c7.164,0,10.363-1.113,11.336-1.807l0,0l0.629-3.34l0,0C163.926,149.355,160.24,150.26,154.953,150.122L154.953,150.122
		L154.953,150.122L154.953,150.122z M152.73,141.636c1.6,0,2.223,0.766,2.223,2.227l0,0h-4.867l0,0
		C150.154,142.681,151.061,141.636,152.73,141.636L152.73,141.636L152.73,141.636L152.73,141.636z"/>
	<path fill-rule="evenodd" clip-rule="evenodd" d="M0,129.675v24.201h12.659v-7.371l0,0c0.973,0,2.851-0.625,4.38,1.738l0,0
		l3.547,5.633h15.578l-6.954-10.987l0,0c-0.975-1.392-1.322-2.782-4.938-3.13l0,0l8.901-10.084h-8.972l-6.815,8.554l0,0
		c-0.765,0.905-0.417,1.739-4.728,1.739l0,0v-10.293H0L0,129.675L0,129.675z"/>
</g>
</svg>
