<?xml version="1.0" encoding="utf-8"?>
<!-- Generator: Adobe Illustrator 16.0.3, SVG Export Plug-In . SVG Version: 6.00 Build 0)  -->
<!DOCTYPE svg PUBLIC "-//W3C//DTD SVG 1.1//EN" "http://www.w3.org/Graphics/SVG/1.1/DTD/svg11.dtd">
<svg version="1.1" id="Vrstva_1" xmlns="http://www.w3.org/2000/svg" xmlns:xlink="http://www.w3.org/1999/xlink" x="0px" y="0px"
	 width="283.464px" height="283.464px" viewBox="0 0 283.464 283.464" enable-background="new 0 0 283.464 283.464"
	 xml:space="preserve">
<g>
	<path fill-rule="evenodd" clip-rule="evenodd" d="M240.194,122.567l28.559-0.001c8.952,0,12.353,6.054,12.353,11.278
		c0,8.891-8.023,10.475-8.023,10.475l10.383,16.578h-20.893l-4.491-11.019l0.003,11.019h-37.99l-4.492-11.019l0.003,11.019h-17.89
		v-38.329l28.55-0.001c8.966,0,12.361,6.054,12.361,11.278c0,8.891-8.023,10.475-8.023,10.475l9.592,15.299V122.567L240.194,122.567
		z M97.535,129.86v7.257h2.583c1.371,0,2.385-0.83,2.868-1.807c0.377-0.781,0.64-2.296-0.043-3.711
		c-0.83-1.72-2.427-1.712-2.798-1.742L97.535,129.86L97.535,129.86z M79.323,122.566c0,0,26.054,0.002,30.502,0.001
		c8.496-0.002,10.499,6.379,10.514,10.12c0.031,6.728-4.693,8.386-4.693,8.386s5.08,1.911,5.08,9.087
		c0,11.18-10.241,10.736-11.827,10.736H79.323V122.566L79.323,122.566z M195.933,160.896v-8.802h-8.285v-6.986h8.205v-7.626h-8.205
		v-7.385h8.285v-7.529h-27.239v38.329H195.933L195.933,160.896z M147.348,160.896h18.941v-38.329h-18.941v14.516h-6.145v-14.516
		h-19.368v38.329h19.368v-16.112h6.145V160.896L147.348,160.896z M77.631,160.896v-8.802h-8.294v-6.986h8.205v-7.626h-8.205v-7.385
		h8.294v-7.529H50.386v38.329H77.631L77.631,160.896z M29.341,122.567h18.623v38.329H29.341V122.567L29.341,122.567z
		 M27.495,160.896v-10.591h-8.287v-27.738H0v38.329H27.495L27.495,160.896z M215.28,129.857v9.078h2.274
		c2.443,0,3.32-1.162,3.854-2.384c0.443-0.969,0.73-2.723,0.003-4.516c-0.384-0.975-1.413-2.177-3.856-2.177L215.28,129.857
		L215.28,129.857z M257.759,129.857v9.078h2.27c2.447,0,3.324-1.162,3.858-2.384c0.437-0.969,0.729-2.723,0.003-4.516
		c-0.383-0.975-1.414-2.177-3.861-2.177L257.759,129.857L257.759,129.857z M97.523,145.342v7.841h2.623
		c1.368,0,2.75-0.888,3.275-1.953c0.4-0.833,0.685-2.481-0.041-4.007c-0.956-2.043-3.036-1.853-3.241-1.881H97.523L97.523,145.342z"
		/>
</g>
</svg>
