<?xml version="1.0" encoding="utf-8"?>
<!-- Generator: Adobe Illustrator 16.0.3, SVG Export Plug-In . SVG Version: 6.00 Build 0)  -->
<!DOCTYPE svg PUBLIC "-//W3C//DTD SVG 1.1//EN" "http://www.w3.org/Graphics/SVG/1.1/DTD/svg11.dtd">
<svg version="1.1" id="Vrstva_1" xmlns="http://www.w3.org/2000/svg" xmlns:xlink="http://www.w3.org/1999/xlink" x="0px" y="0px"
	 width="283.46px" height="283.46px" viewBox="0 0 283.46 283.46" enable-background="new 0 0 283.46 283.46" xml:space="preserve">
<g>
	<path fill="#0090C2" d="M37.588,103.1c-20.692,0-37.59,16.858-37.59,37.63c0,20.693,16.857,37.59,37.59,37.59
		c20.733,0,37.63-16.936,37.63-37.629C75.218,119.958,58.28,103.1,37.588,103.1z M37.508,175.205
		c-18.935,0-34.435-15.498-34.435-34.475c0-19.054,15.5-34.514,34.435-34.514s34.474,15.5,34.474,34.514
		C71.982,159.707,56.443,175.205,37.508,175.205z"/>
	<path fill="#0090C2" d="M50.891,168.293l10.826-8.667l-9.507-10.387l10.625-1.079c2.757-0.719,3.036-1.838,3.036-3.354
		l-2.396-21.133c-0.2-2.077-2.197-2.277-2.637-2.477l-36.671-9.986v14.74c9.148,2.477,25.646,6.831,27.284,7.19
		c1.638,0.36,2.396,3.356-1.278,3.476l-29.321,0.919l0.279-24.208l-15.1,29.002l15.1,23.968l-0.2-15.378
		c7.709-1.439,11.465-0.441,14.741,1.996C38.986,155.351,44.858,161.822,50.891,168.293"/>
	<g>
		<path fill="#0090C2" d="M122.995,123.673c-3.355-0.878-6.231-1.198-9.667-1.518c-0.08,0.08-0.2,0.08-0.2,0.08
			c-3.835,7.15-6.791,14.381-11.984,19.814c-0.839,0.558-1.478,0.079-1.478,0.079l-0.56-0.678l-0.2-0.281l-5.074,2.917
			c1.559,3.555,2.796,7.109,4.554,10.506c0.2,0.119,0.2,0.119,0.28,0.119c1.878-1.278,1.878-1.197,3.475-2.396
			c6.432-6.551,11.425-12.743,15.54-19.574c1.797-2.956,3.715-5.752,5.313-8.988V123.673z"/>
		<path fill="#0090C2" d="M281.225,126.429c-0.48,0.08-0.76,0-1.119,0c-3.715,0.04-7.271,0-10.985-0.12
			c-1.197,0.16-2.516,0.16-3.715,0.16c-1.678-0.04-3.435-0.12-5.033,0.2c-1.398,0.279-2.716,0.798-3.836,1.358
			c-1.397,0.719-2.715,1.638-3.874,2.836c-2.077,2.117-3.396,4.714-4.114,7.79c-0.32,2.238-0.24,4.476,0.399,6.631
			c-1.877,1.559-4.394,2.357-6.831,3.476c-0.479,0-0.76-0.12-1.038-0.278c0-6.512,3.115-19.375,0.439-20.693
			c-0.92-0.839-2.316-1.438-3.637-1.079c-2.715,0.52-4.314,3.396-6.311,5.153c-3.315,3.395-6.431,6.911-10.026,10.226l-0.28-0.08
			c-0.159-1.039,0.32-2.236,0.32-3.275c0.2-2.517,0.638-5.114,0.918-7.63c0.12-1.198-0.359-2.236-1.079-2.996
			c-0.918-1.118-2.315-1.717-3.635-1.638c-3.993,0.24-11.024,10.586-16.697,15.458c-0.08,0.201-0.479,0.201-0.64,0l-0.08-0.277
			c0.2-0.84,0.2-1.759,0.401-2.598c0.318-1.957,0.518-3.715,0.798-5.672c0.399-2.037,0.438-4.554-1.159-5.792
			c-1.758-1.718-4.634-0.999-6.871-1.119c-2.516-0.04-5.032-0.08-7.35,0c-1.957,0.08-3.915-0.04-5.793,0.04
			c-5.313,0.479-10.825-0.879-15.979,1.119c-1.397,0.559-2.516,1.278-3.674,1.997c-3.676,2.836-5.873,7.311-5.753,12.344
			c-0.12,1.597,0.6,3.075,0.679,4.594c-0.839,0.438-1.877,0.919-2.796,1.357c-1.877,0.719-3.676,2.557-5.912,1.598
			c-2.876-2.196-5.513-5.472-8.109-8.108c-1.119-1.519-2.876-2.757-3.396-4.314c1.039-0.439,2.437-0.719,3.555-1.079
			c1.318-0.439,2.716-0.798,4.115-1.238c2.916-1,5.912-2.078,8.708-3.156c2.797-1.079,5.354-2.277,7.51-3.835
			c1.519-0.919,2.636-2.756,2.198-4.714c-0.28-1.398-1.199-2.437-2.277-2.996c-1.758-0.679-3.516-1.358-5.313-1.837
			c-9.587-2.357-18.895-4.235-28.482-4.714c-3.275-0.12-6.511-0.279-9.867-0.319c-4.753-0.16-9.507,0.08-14.181,0.758
			c-2.157,0.24-4.194,0.52-6.271,0.84c-0.48,0.08-1.039,0-1.478,0.279c-0.639,0-1.398,0.16-2.038,0.24
			c-0.479,0.199-0.919,0.08-1.318,0.359l-0.798,2.796c2.876,0.04,5.712-0.32,8.509-0.36c5.113-0.2,10.266-0.439,15.299,0.2
			c5.113,0.439,10.146,0.958,15.18,1.958c1.199,0.2,2.317,0.599,3.436,0.679c0.759,0.2,1.398,0.2,2.038,0.399
			c3.435,0.959,7.55,1.318,10.386,3.196c0.199,0.36,0.159,0.919-0.119,1.199c-6.872,4.953-16.499,6.591-25.087,9.107
			c1.917,2.357,4.234,4.515,6.432,6.991c0.639,0.679,1.278,1.318,1.837,1.878c3.235,3.195,6.631,5.752,9.867,8.229
			c1.678,1.238,3.236,2.276,4.793,3.396c0.48,0.279,0.919,0.56,1.479,0.84c0.358,0.199,0.759,0.199,1.118,0.278l0.399,0.12
			c2.995-0.438,5.513-2.156,8.229-3.075c1.797-0.799,3.395-1.639,5.232-2.277c1.279,1.037,2.397,2.277,3.796,3.036
			c0.359,0.279,0.759,0.399,1.039,0.559c4.273,2.117,9.307,1.958,13.421-0.04c3.756-1.996,6.792-5.432,7.749-9.786
			c1.439-4.635-0.357-9.787-2.715-13.103c0.079-0.2,0.199-0.28,0.358-0.28c1.2-0.16,2.517,0.04,3.716-0.16
			c1.957,0.319,4.395-0.679,5.951,0.639c0.201,0.2,0.28,0.36,0.28,0.639c0,1.199-0.319,2.437-0.319,3.635
			c-0.639,5.393-1.159,10.906-1.598,16.378c0.16,1.478,0.919,2.637,1.997,3.275c1.277,0.839,3.075,0.879,4.395,0.24
			c1.038-0.64,1.598-1.479,2.437-2.317c4.354-4.435,8.509-9.228,12.663-13.461h0.36c0.199,0.079,0.199,0.359,0.199,0.479
			c-0.601,3.996-1.038,7.91-1.359,11.746c0.16,1.678,1.079,2.915,2.397,3.555c1.398,0.679,2.996,0.599,4.274-0.119
			c0.958-0.72,1.718-1.678,2.557-2.597l12.104-13.463c0.08-0.079,0.199-0.079,0.279-0.079c0.079,0,0.199,0,0.199,0.079
			c-0.519,5.953-2.796,14.062,0,15.66c1.118,0.839,2.796,1.358,4.074,0.799c0.479-0.199,0.84-0.358,1.239-0.56
			c3.756-1.557,7.391-3.155,11.064-4.714c0.84-0.279,1.519-0.998,2.438-0.799c2.677,3.316,6.831,5.593,11.584,5.753
			c1.678,0.04,3.436-0.319,5.033-0.879c0.479-0.2,0.84-0.279,1.319-0.44c3.676-1.638,6.512-4.752,7.948-8.468
			c1.999-4.834,0.399-10.267-1.797-14.021c2.077-0.719,4.675-0.04,6.911-0.399l0.919-5.473
			C282.824,126.429,281.985,126.549,281.225,126.429z M175.246,146.003c-1.317,1.479-3.355,2.478-5.513,2.278
			c-0.398,0-0.76-0.081-1.198-0.161c-2.078-0.479-3.636-1.798-4.634-3.596c-0.64-1.158-0.919-2.637-0.799-4.034
			c0.2-0.56,0.2-1.199,0.479-1.758c0.358-0.64,0.68-1.199,1.037-1.758c0.561-0.56,1.159-1.199,2.079-1.558
			c0.558-0.36,1.197-0.639,1.957-0.8c2.156-0.359,4.594,0.24,6.151,1.758c0.72,0.76,1.559,1.718,1.917,2.916
			C177.443,141.65,176.763,144.445,175.246,146.003z M269.561,144.525c-0.959,1.678-2.356,2.957-4.435,3.596
			c-0.839,0.119-1.879,0.08-2.717,0.08c-1.558-0.2-2.876-0.959-3.874-1.798c-0.84-0.959-1.479-1.998-1.918-3.195
			c-0.359-1.878-0.159-3.956,0.798-5.513c1.04-1.478,2.478-2.676,4.516-3.036c0.839-0.279,1.797-0.279,2.716-0.16
			c2.036,0.48,3.595,1.559,4.713,3.236C270.56,139.612,270.798,142.289,269.561,144.525z"/>
	</g>
</g>
</svg>
