<?xml version="1.0" encoding="utf-8"?>
<!-- Generator: Adobe Illustrator 16.0.3, SVG Export Plug-In . SVG Version: 6.00 Build 0)  -->
<!DOCTYPE svg PUBLIC "-//W3C//DTD SVG 1.1//EN" "http://www.w3.org/Graphics/SVG/1.1/DTD/svg11.dtd">
<svg version="1.1" id="Vrstva_1" xmlns="http://www.w3.org/2000/svg" xmlns:xlink="http://www.w3.org/1999/xlink" x="0px" y="0px"
	 width="283.465px" height="283.465px" viewBox="458.268 -9.732 283.465 283.465"
	 enable-background="new 458.268 -9.732 283.465 283.465" xml:space="preserve">
<g transform="translate(0.000000,264.000000) scale(0.100000,-0.100000)">
	<path d="M5792.27,1624.736c-105.884-16.934-198.159-89.189-237.734-186.338c-24.868-61.035-30.239-127.773-15.137-190.176
		c2.476-10.742,4.429-20.508,3.94-20.508c-0.488-0.977-7.563,8.193-15.732,19.531c-8.267,11.719-25.313,34.326-37.969,51.66
		c-41.016,55.527-103.501,140.469-209.443,284.014c-13.672,18.984-25.073,33.672-25.552,33.184
		c-0.327-0.488-33.037-66.885-72.095-147.437c-39.238-80.562-71.777-146.968-72.256-147.437
		c-0.488-0.508-9.766,17.578-20.986,40.098c-10.747,22.871-34.185,71.182-52.222,107.339
		c-17.603,36.611-41.265,84.487-52.266,107.402c-11.216,22.944-20.566,40.034-21.914,39.058c-1.03-1.465-28.35-38.081-60.581-81.533
		c-32.476-43.447-74.692-100.576-94.233-126.938c-19.507-25.864-52.1-69.419-72.217-97.017
		c-20.029-26.26-62.876-84.014-95.2-127.813c-32.163-42.969-58.34-79.092-57.91-79.092c2.793-1.953,85.298-65.439,93.496-72.021
		l9.81-8.057l38.208,51.748c101.172,135.732,144.858,195.186,176.787,237.529c18.843,25.898,34.951,46.865,35.674,46.875
		c0.732,0,7.319-12.129,14.653-26.367c7.563-14.648,33.428-64.688,57.256-111.563c24.023-46.865,56.421-110.332,71.504-140.137
		c15.493-30.156,28.447-55.166,29.165-55.166c0.566,0,38.994,75.205,84.785,166.982c80.591,161.865,83.477,166.748,87.437,162.344
		c2.412-2.168,22.578-28.789,45.039-58.828c22.813-29.297,55.654-73.242,73.228-96.67
		c72.705-95.703,103.008-135.732,117.656-155.264c13.672-18.564,16.055-20.518,19.58-17.646c2.393,1.035,22.422,16.66,44.863,34.238
		c22.461,17.578,42.241,32.236,43.945,32.979c1.948,0.225,6.831-1.748,11.177-6.055c22.998-22.031,69.863-48.408,106.055-60.322
		c98.56-32.051,206.943-12.49,288.765,52.93c32.842,25.42,67.354,69.326,84.932,107.422l8.789,17.568h52.715h53.701v-90.801v-90.83
		h65.449h66.387l0.918,89.844l0.068,90.811l183.554-90.811c167.949-82.998,182.598-89.844,185.527-85.938
		c1.953,1.953,21.484,28.262,43.945,57.578l41.016,52.783l202.754,0.967h202.441l12.715-15.625
		c6.816-8.779,27.344-35.156,44.922-57.988l32.207-42.275l14.648,11.406c12.041,9.766,86.016,66.406,88.848,68.359
		c0.801,0.41-17.48,23.672-159.141,207.744c-30.176,39.063-95.576,123.716-145.469,188.457
		c-49.824,64.932-91.172,116.68-92.012,115.703c-1.758-1.465-47.646-61.514-99.189-128.301
		c-42.197-54.775-69.541-90.469-92.002-120.195c-13.672-17.578-40.996-52.734-60.527-77.881
		c-19.531-25.391-48.33-62.5-63.818-83.008c-15.283-19.521-28.945-37.1-29.912-38.252c-0.254-0.85-26.367,10.283-57.617,25.771
		l-55.664,28.105l15.654,3.906c58.623,14.648,112.256,62.5,133.594,119.873c16.758,46.875,16.758,108.389-0.781,149.438
		c-14.639,35.107-42.021,68.794-71.318,87.935c-20.508,13.389-47.852,24.795-72.783,29.746c-19.99,4.326-33.662,4.785-178.173,4.785
		h-156.24V1467.69v-148.921h-42.939h-41.992l-0.977,20.576c-10.742,144.453-120.137,263.823-262.939,285.391
		C5854.824,1628.794,5819.184,1628.794,5792.27,1624.736z M5873.305,1492.588c35.22-6.836,68.071-25.391,93.823-52.749
		c18.638-19.985,28.799-37.09,38.32-63.853c7.52-19.609,7.813-22.412,7.813-56.24c0-32.461-0.967-36.367-6.826-53.945
		c-15.454-44.922-47.119-81.621-87.046-101.553c-30.884-15.439-46.523-18.818-81.167-18.818c-32.227,0-49.312,3.193-75.674,15.879
		c-67.383,33.203-107.891,106.445-98.623,178.467c6.836,49.805,29.785,90.313,67.378,119.131
		C5773.779,1491.123,5821.591,1502.353,5873.305,1492.588z M6541.532,1486.767c18.545-9.023,30.273-21.523,41.006-42.51
		c6.27-14.17,6.836-17.813,6.836-39.375c0-21.143-0.566-25.068-6.631-36.787c-10.947-22.959-37.305-42.959-62.686-47.842
		c-7.07-1.484-153.632-2.461-155.253-0.977c0,0.469-0.986,40.371-1.953,88.857l-1.953,87.871l82.988-0.488l82.021-0.967
		L6541.532,1486.767z M7056.112,1362.236c17.568-20.508,39.619-47.852,49.805-60.332c9.932-11.689,24.395-29.268,31.436-38.057
		l13.486-15.82l-127.891-0.781c-70.225-0.059-127.197,0-127.197,0.977s18.779,24.414,42.217,52.373
		c22.461,27.939,50.781,61.641,62.48,75.791c10.898,13.838,21.484,24.912,22.5,24.409
		C7023.944,1400.322,7039.511,1383.223,7056.112,1362.236z"/>
</g>
</svg>
