<?xml version="1.0" encoding="utf-8"?>
<!-- Generator: Adobe Illustrator 16.0.3, SVG Export Plug-In . SVG Version: 6.00 Build 0)  -->
<!DOCTYPE svg PUBLIC "-//W3C//DTD SVG 1.1//EN" "http://www.w3.org/Graphics/SVG/1.1/DTD/svg11.dtd">
<svg version="1.1" id="Vrstva_1" xmlns="http://www.w3.org/2000/svg" xmlns:xlink="http://www.w3.org/1999/xlink" x="0px" y="0px"
	 width="283.465px" height="283.464px" viewBox="0 0 283.465 283.464" enable-background="new 0 0 283.465 283.464"
	 xml:space="preserve">
<g>
	<polygon fill-rule="evenodd" clip-rule="evenodd" fill="#E30613" points="0,106.892 283.464,106.892 283.464,176.571 0,176.571 
		0,106.892 	"/>
	<polygon fill-rule="evenodd" clip-rule="evenodd" fill="#FFFFFF" points="109.854,128.761 120.724,123.153 117.314,116.608 
		106.457,122.097 109.854,128.761 	"/>
	<polygon fill-rule="evenodd" clip-rule="evenodd" fill="#FFFFFF" points="125.036,155.999 125.036,129.546 95.969,129.546 
		95.969,137.028 101.207,137.028 101.207,155.999 95.969,155.999 95.969,163.481 130.285,163.481 130.285,155.999 125.036,155.999 	
		"/>
	<polygon fill-rule="evenodd" clip-rule="evenodd" fill="#FFFFFF" points="51.981,135.972 64.68,118.415 91.133,118.415 
		91.133,125.897 85.883,125.897 85.883,155.999 91.133,155.999 91.133,163.481 56.686,163.481 56.686,155.999 62.055,155.999 
		62.055,136.483 42.42,163.481 22.782,136.483 22.782,155.999 28.152,155.999 28.152,163.481 9.17,163.481 9.17,155.999 
		14.408,155.999 14.408,125.897 9.17,125.897 9.17,118.415 39.151,118.415 51.981,135.972 	"/>
	<polygon fill-rule="evenodd" clip-rule="evenodd" fill="#FFFFFF" points="190.643,155.999 185.393,155.999 185.393,163.481 
		220.874,163.481 220.874,155.999 215.505,155.999 215.505,118.415 185.393,118.415 185.393,125.897 190.643,125.897 
		190.643,155.999 	"/>
	<path fill-rule="evenodd" clip-rule="evenodd" fill="#FFFFFF" d="M157.762,149.062h25.277c0.904-7.211-2.625-13.875-9.168-17.164
		c-5.247-2.592-10.589-3.92-16.109-4.041c-4.977,0-10.072,0.904-15.051,3.137c-8.625,3.529-12.578,13.484-8.896,22.143
		c1.84,4.432,5.096,7.568,9.562,9.289c4.823,1.842,9.683,2.744,14.386,2.625c5.369,0,10.738-1.176,16.109-3.682
		c4.191-1.959,7.328-5.096,8.896-9.682h-13.211c-1.447,4.705-6.426,7.449-11.131,6.033c-0.271-0.152-0.391-0.152-0.664-0.271
		c-0.119,0-0.391-0.119-0.652-0.273c-1.82-0.902-2.994-2.744-2.994-4.703v-3.41H157.762z M154.115,138.595
		c0-2.111,1.688-3.68,3.646-3.68c2.113,0,3.801,1.568,3.801,3.68v4.705h-3.801h-3.646V138.595z"/>
	<path fill-rule="evenodd" clip-rule="evenodd" fill="#FFFFFF" d="M248.373,127.856v7.059c-2.101,0-3.801,1.568-3.801,3.68v4.705
		h3.801v5.762h-3.801v3.41c0,1.959,1.176,3.801,3.016,4.703c0.263,0.154,0.512,0.273,0.785,0.273v7.602
		c-4.847,0.119-9.688-0.785-14.539-2.625c-4.442-1.721-7.591-4.857-9.563-9.289c-3.648-8.658,0.393-18.613,9.051-22.143
		C238.288,128.761,243.265,127.856,248.373,127.856L248.373,127.856z"/>
	<path fill-rule="evenodd" clip-rule="evenodd" fill="#FFFFFF" d="M248.373,149.062V143.3h3.662v-4.705
		c0-2.111-1.701-3.68-3.662-3.68v-7.059c5.369,0.121,10.738,1.449,16.107,4.041c6.545,3.289,10.074,9.953,9.159,17.164H248.373
		L248.373,149.062z"/>
	<path fill-rule="evenodd" clip-rule="evenodd" fill="#FFFFFF" d="M248.373,165.05v-7.602c0.122,0.119,0.261,0.119,0.522,0.271
		c4.717,1.416,9.823-1.328,11.262-6.033h13.222c-1.7,4.586-4.716,7.723-9.034,9.682C258.981,163.874,253.742,165.05,248.373,165.05
		L248.373,165.05z"/>
</g>
</svg>
